<?xml version="1.0" encoding="UTF-8"?>
<svg id="Capa_1" data-name="Capa 1" xmlns="http://www.w3.org/2000/svg" viewBox="0 0 1596.18 449.53">
  <defs>
    <style>
      .cls-1 {
        fill: #293451;
      }

      .cls-1, .cls-2, .cls-3, .cls-4 {
        stroke-width: 0px;
      }

      .cls-2 {
        fill: #8994af;
      }

      .cls-3 {
        fill: #adadad;
      }

      .cls-4, .cls-5 {
        fill: #fff;
      }

      .cls-5 {
        font-family: Carnero-Bold, Carnero;
        font-size: 161.55px;
        font-weight: 700;
      }
    </style>
  </defs>
  <rect class="cls-2" x="948.22" y="224.76" width="647.95" height="224.76"/>
  <rect class="cls-1" width="1371.41" height="224.76"/>
  <rect class="cls-3" x="1371.41" width="224.76" height="224.76" transform="translate(2967.59 224.76) rotate(180)"/>
  <text class="cls-5" transform="translate(53.88 164.29)"><tspan x="0" y="0">Grupo Negocios</tspan></text>
  <text class="cls-5" transform="translate(1027.24 402.03)"><tspan x="0" y="0">&amp; Más</tspan></text>
  <g>
    <path class="cls-4" d="M1554.32,112.51c-.47,1.18-.8,2.43-1.42,3.51-1.53,2.7-3.92,4.31-6.94,4.98-17.24,3.84-34.47,7.68-51.71,11.48-1.18.26-1.58.7-1.53,1.93.1,2.84.05,5.68.03,8.52-.03,3.16-1.13,4.27-4.23,4.28-6.32,0-12.64.01-18.96,0-3.02,0-4.15-1.13-4.18-4.18-.03-2.89-.06-5.78.02-8.67.03-1.13-.3-1.61-1.44-1.86-17.24-3.8-34.48-7.64-51.71-11.48-5.22-1.16-8.43-5.14-8.45-10.52-.03-6.91-.02-13.82,0-20.72.01-6.63,3.97-10.72,10.59-10.99.39-.02.78,0,1.18,0,42.43,0,84.85,0,127.28,0,3.81,0,7.25.89,9.49,4.22.91,1.35,1.35,3,2.01,4.52v24.99ZM1492.73,125.93c.66-.11,1.14-.16,1.6-.26,16.56-3.7,33.13-7.41,49.69-11.12,2.57-.58,3.46-1.64,3.47-4.3.02-6.81.02-13.62,0-20.43,0-3.02-1.16-4.15-4.2-4.15-42.82,0-85.64,0-128.46,0-3.1,0-4.21,1.15-4.22,4.29-.01,6.71-.01,13.42,0,20.14,0,2.84.85,3.86,3.61,4.48,12.98,2.91,25.97,5.82,38.95,8.72,4,.89,8,1.77,12.2,2.7,0-.79-.01-1.41,0-2.04.07-2.96,1.19-4.08,4.13-4.1,2.4-.01,4.8,0,7.2,0,4.07,0,8.13-.02,12.2,0,2.54.02,3.66,1.12,3.83,3.64.05.77,0,1.54,0,2.42ZM1472.3,140.3h13.44v-13.51h-13.44v13.51Z"/>
    <path class="cls-1" d="M1479.1,184.85c-20.33,0-40.66,0-60.99,0-4.45,0-7.96-1.69-9.85-5.84-.68-1.5-.98-3.3-.99-4.97-.07-14.4-.05-28.81-.04-43.21,0-3.1,1.66-4.57,4.34-3.96,1.16.26,1.94.96,2.22,2.08.19.75.25,1.55.26,2.32.01,14.06,0,28.12.01,42.18,0,3.5,1.06,4.57,4.54,4.57,40.32,0,80.64,0,120.96,0,3.4,0,4.48-1.09,4.48-4.48,0-14.06,0-28.12,0-42.18,0-.68.03-1.38.17-2.04.35-1.69,1.68-2.68,3.38-2.61,1.82.08,3,1.17,3.21,2.99.05.44.07.88.07,1.32,0,14.26-.01,28.51.01,42.77,0,4.51-1.61,8.1-5.83,9.99-1.63.73-3.6,1.01-5.41,1.01-20.18.07-40.37.04-60.55.04Z"/>
    <path class="cls-1" d="M1479.08,54.87c5.44,0,10.87-.01,16.31,0,6.84.02,10.99,4.15,11.01,10.97,0,.98.04,1.96-.04,2.94-.17,1.96-1.5,3.16-3.38,3.16-1.89,0-3.2-1.23-3.35-3.18-.07-.93-.03-1.86-.04-2.79-.03-3.08-1.2-4.27-4.27-4.28-6.76-.01-13.52,0-20.28,0-4.07,0-8.13,0-12.2,0-3.16,0-4.32,1.18-4.35,4.35-.01,1.08.04,2.17-.11,3.23-.21,1.56-1.43,2.55-3.06,2.67-1.59.11-3.16-.73-3.39-2.21-.72-4.73-.48-9.59,3.77-12.8,2-1.5,4.28-2.06,6.75-2.05,5.54.02,11.07,0,16.61,0Z"/>
  </g>
</svg>