<?xml version="1.0" encoding="UTF-8"?>
<svg id="Capa_1" data-name="Capa 1" xmlns="http://www.w3.org/2000/svg" viewBox="0 0 1383.71 449.53">
  <defs>
    <style>
      .cls-1 {
        fill: #ff8585;
      }

      .cls-1, .cls-2, .cls-3 {
        stroke-width: 0px;
      }

      .cls-2 {
        fill: #fff;
      }

      .cls-3 {
        fill: #ff2625;
      }
    </style>
  </defs>
  <rect class="cls-1" x="735.75" y="224.76" width="647.95" height="224.76"/>
  <rect class="cls-3" width="1158.94" height="224.76"/>
  <rect class="cls-2" x="1158.94" width="224.76" height="224.76" transform="translate(2542.65 224.76) rotate(180)"/>
  <g id="_5Kx7mK.tif" data-name="5Kx7mK.tif">
    <g>
      <path class="cls-3" d="M1234.68,173.26c-2.08-.67-4.31-1.07-6.23-2.07-6.41-3.35-9.9-8.78-9.97-16.01-.14-15.2-.09-30.41-.02-45.61.03-5.54,2.68-9.67,7.6-12.24,12.71-6.65,25.5-13.16,38.13-19.97,3.26-1.76,5.85-1.77,9.11,0,12.46,6.71,25.06,13.18,37.63,19.68,5.49,2.84,8.15,7.27,8.13,13.44-.04,14.63,0,29.26-.01,43.9,0,9.76-6.2,17.07-15.83,18.7-.14.02-.27.12-.4.18h-68.15ZM1268.74,164.12c10.44,0,20.88,0,31.32,0,6.03,0,9.86-3.82,9.86-9.83,0-14.63-.02-29.26.02-43.88,0-2.45-.96-4.09-3.13-5.21-12.37-6.4-24.71-12.84-37.05-19.3-.72-.38-1.25-.39-1.98,0-12.37,6.48-24.75,12.94-37.15,19.36-2.14,1.11-3.07,2.73-3.07,5.13.04,14.63.02,29.26.02,43.88,0,6.04,3.81,9.87,9.83,9.87,10.44,0,20.88,0,31.32,0Z"/>
      <path class="cls-3" d="M1210.21,86.38c.56-1.79,1.83-2.84,3.48-3.68,16.14-8.22,32.26-16.49,48.37-24.77,4.42-2.27,8.83-2.33,13.25-.07,16.4,8.39,32.79,16.79,49.17,25.2,2.24,1.15,3.23,3.2,2.65,5.36-.57,2.15-2.48,3.62-4.66,3.42-.84-.08-1.7-.42-2.46-.81-16.03-8.19-32.06-16.37-48.05-24.64-2.26-1.17-4.19-1.15-6.45.02-15.88,8.22-31.84,16.3-47.72,24.54-3.23,1.67-6.42.83-7.59-2.73v-1.83Z"/>
    </g>
  </g>
  <g>
    <path class="cls-2" d="M146.15,166.06c-18.96,0-34.03-5.28-45.23-15.83-11.2-10.55-16.8-24.77-16.8-42.65s5.55-33.22,16.64-43.78c11.09-10.55,24.88-15.83,41.36-15.83,9.58,0,18.5,1.97,26.74,5.9,8.24,3.93,15.11,9.51,20.6,16.72l-20.84,15.99c-7.33-8.83-16.16-13.25-26.49-13.25-7.97,0-14.89,2.96-20.76,8.89-5.87,5.92-8.8,14.32-8.8,25.2s3.04,18.82,9.13,24.47c6.08,5.65,14.14,8.48,24.15,8.48,7.11,0,12.98-1.08,17.61-3.23v-11.95h-18.74v-22.78h45.56v52.83c-13.68,7.22-28.38,10.82-44.1,10.82Z"/>
    <path class="cls-2" d="M262.63,81.41l3.39,22.29h-2.42c-11.42,0-20.46,4.2-27.14,12.6v47.98h-24.72v-82.07h24.72v13.41c4.85-9.48,12.65-14.22,23.42-14.22h2.75Z"/>
    <path class="cls-2" d="M332.58,82.06h25.04v82.23h-25.04v-9.37c-6.79,7.32-15.29,10.99-25.53,10.99s-17.93-3.01-23.1-9.05c-5.17-6.03-7.75-14.65-7.75-25.85v-48.95h25.04v45.4c0,10.66,4.74,15.99,14.22,15.99,6.68,0,12.38-3.01,17.12-9.05v-52.34Z"/>
    <path class="cls-2" d="M428.7,80.61c11.2,0,20.27,3.85,27.22,11.55,6.95,7.7,10.42,18.01,10.42,30.94s-3.82,22.73-11.47,30.69c-7.65,7.97-17.61,11.95-29.89,11.95-8.62,0-16.05-2.15-22.29-6.46v38.93h-25.04v-115.99h25.04v10.18c2.48-3.66,6-6.54,10.58-8.64,4.58-2.1,9.72-3.15,15.43-3.15ZM420.62,143.29c6.03,0,10.82-1.8,14.38-5.41,3.55-3.61,5.33-8.53,5.33-14.78s-1.73-10.99-5.17-14.54c-3.45-3.55-8.08-5.33-13.89-5.33-7.65,0-13.95,3.61-18.9,10.82v24.88c4.95,2.91,11.04,4.36,18.25,4.36Z"/>
    <path class="cls-2" d="M554.47,153.87c-8.46,8.02-19.36,12.04-32.71,12.04s-24.26-4.01-32.71-12.04c-8.46-8.02-12.68-18.23-12.68-30.61s4.23-22.59,12.68-30.61c8.45-8.02,19.36-12.04,32.71-12.04s24.26,4.01,32.71,12.04c8.45,8.02,12.68,18.23,12.68,30.61s-4.23,22.59-12.68,30.61ZM507.62,137.63c3.61,3.66,8.32,5.49,14.14,5.49s10.53-1.86,14.14-5.57c3.61-3.72,5.41-8.53,5.41-14.46s-1.8-10.55-5.41-14.22c-3.61-3.66-8.27-5.49-13.97-5.49s-10.56,1.83-14.22,5.49c-3.66,3.66-5.49,8.46-5.49,14.38s1.8,10.72,5.41,14.38Z"/>
    <path class="cls-2" d="M673.12,165.9c-18.85,0-33.98-5.38-45.4-16.15-11.42-10.77-17.12-25.52-17.12-44.26,0-17.77,5.44-31.8,16.32-42.08,10.88-10.28,24.5-15.43,40.87-15.43,20.03,0,34.95,7.27,44.75,21.81l-20.19,15.83c-5.92-8.18-14.11-12.28-24.56-12.28-8.62,0-15.56,3.04-20.84,9.13-5.28,6.09-7.92,13.76-7.92,23.02,0,10.34,3.23,18.77,9.69,25.28,6.46,6.52,15.29,9.77,26.49,9.77,9.37,0,18.63-2.59,27.79-7.75l10.18,22.29c-11.42,7.22-24.77,10.82-40.06,10.82Z"/>
    <path class="cls-2" d="M807.53,131.01c0,6.46,2.64,10.77,7.92,12.92l-10.66,21.81c-9.16-1.62-15.67-6.41-19.55-14.38-2.8,4.63-6.7,8.21-11.71,10.74-5.01,2.53-10.64,3.8-16.88,3.8-10.99,0-20.11-3.77-27.38-11.31-7.27-7.54-10.9-17.77-10.9-30.69s4.04-23.37,12.12-31.34c8.08-7.97,18.31-11.95,30.7-11.95,9.15,0,16.91,2.26,23.26,6.79l.81-5.17h22.29v48.79ZM762.78,143.12c5.81,0,10.58-2.07,14.3-6.22,3.72-4.14,5.52-9.4,5.41-15.75v-13.73c-5.81-2.91-11.63-4.36-17.45-4.36-6.46,0-11.55,1.91-15.27,5.74-3.72,3.82-5.57,8.86-5.57,15.1,0,5.82,1.75,10.48,5.25,13.97,3.5,3.5,7.94,5.25,13.33,5.25Z"/>
    <path class="cls-2" d="M855.67,165.9c-12.6,0-23.86-2.8-33.76-8.4l8.4-18.26c7.43,4.85,15.78,7.27,25.04,7.27,7,0,10.5-1.88,10.5-5.65,0-1.83-1.13-3.34-3.39-4.52-2.26-1.18-6.52-2.64-12.76-4.36-7.86-2.15-13.92-5.17-18.17-9.05-4.26-3.88-6.38-9.21-6.38-15.99,0-8.08,2.93-14.51,8.81-19.3,5.87-4.79,13.6-7.19,23.18-7.19,7.11,0,13.33,1.27,18.66,3.8,5.33,2.53,9.39,5.74,12.2,9.61l-15.51,12.28c-1.51-2.15-3.71-3.96-6.62-5.41-2.91-1.45-5.82-2.18-8.72-2.18-5.06,0-7.59,1.78-7.59,5.33,0,1.83,1.32,3.42,3.96,4.77,2.64,1.35,7.13,2.94,13.49,4.77,7.86,2.37,13.7,5.47,17.53,9.29,3.82,3.82,5.73,9.13,5.73,15.91,0,8.51-2.99,15.19-8.97,20.03-5.98,4.85-14.51,7.27-25.61,7.27Z"/>
    <path class="cls-2" d="M989.76,131.01c0,6.46,2.64,10.77,7.92,12.92l-10.66,21.81c-9.16-1.62-15.67-6.41-19.55-14.38-2.8,4.63-6.7,8.21-11.71,10.74-5.01,2.53-10.64,3.8-16.88,3.8-10.99,0-20.11-3.77-27.38-11.31-7.27-7.54-10.9-17.77-10.9-30.69s4.04-23.37,12.12-31.34c8.08-7.97,18.31-11.95,30.7-11.95,9.15,0,16.91,2.26,23.26,6.79l.81-5.17h22.29v48.79ZM945.01,143.12c5.81,0,10.58-2.07,14.3-6.22,3.72-4.14,5.52-9.4,5.41-15.75v-13.73c-5.81-2.91-11.63-4.36-17.45-4.36-6.46,0-11.55,1.91-15.27,5.74-3.72,3.82-5.57,8.86-5.57,15.1,0,5.82,1.75,10.48,5.25,13.97,3.5,3.5,7.94,5.25,13.33,5.25Z"/>
    <path class="cls-2" d="M1037.9,165.9c-12.6,0-23.86-2.8-33.76-8.4l8.4-18.26c7.43,4.85,15.78,7.27,25.04,7.27,7,0,10.5-1.88,10.5-5.65,0-1.83-1.13-3.34-3.39-4.52-2.26-1.18-6.52-2.64-12.76-4.36-7.86-2.15-13.92-5.17-18.17-9.05-4.26-3.88-6.38-9.21-6.38-15.99,0-8.08,2.93-14.51,8.81-19.3,5.87-4.79,13.6-7.19,23.18-7.19,7.11,0,13.33,1.27,18.66,3.8,5.33,2.53,9.39,5.74,12.2,9.61l-15.51,12.28c-1.51-2.15-3.71-3.96-6.62-5.41-2.91-1.45-5.82-2.18-8.72-2.18-5.06,0-7.59,1.78-7.59,5.33,0,1.83,1.32,3.42,3.96,4.77,2.64,1.35,7.13,2.94,13.49,4.77,7.86,2.37,13.7,5.47,17.53,9.29,3.82,3.82,5.73,9.13,5.73,15.91,0,8.51-2.99,15.19-8.97,20.03-5.98,4.85-14.51,7.27-25.61,7.27Z"/>
  </g>
  <g>
    <path class="cls-2" d="M939.33,380.38l-6.95,22.62c-6.68-.43-12.63-1.7-17.85-3.8-5.22-2.1-10.74-5.36-16.56-9.77-10.01,9.48-22.56,14.22-37.64,14.22-12.38,0-22.24-3.12-29.56-9.37-7.33-6.24-10.99-14.65-10.99-25.2,0-12.71,7.27-23.21,21.81-31.5-5.49-7.32-8.24-14.97-8.24-22.94s3.07-15.08,9.21-20.68c6.14-5.6,14.43-8.4,24.88-8.4,14,0,25.63,5.06,34.89,15.19l-17.61,14.54c-2.8-3.12-5.39-5.33-7.75-6.62-2.37-1.29-5.07-1.94-8.08-1.94s-5.47.84-7.35,2.5c-1.88,1.67-2.83,3.8-2.83,6.38,0,2.37.7,4.66,2.1,6.87,1.4,2.21,4.09,5.09,8.08,8.64l24.39,22.13c2.37-7.43,3.88-15.56,4.52-24.39h34.9v21.81h-15.03c-1.62,7.11-3.61,13.36-5.98,18.74,9.15,6.57,18.36,10.23,27.63,10.99ZM846.92,367.94c0,3.77,1.38,6.84,4.12,9.21,2.74,2.37,6.49,3.55,11.23,3.55,6.79,0,12.82-2.21,18.09-6.62l-24.39-21.81c-6.03,4.42-9.05,9.64-9.05,15.67Z"/>
    <path class="cls-2" d="M981.49,402.03l5.82-114.7h37.32l23.91,55.9,25.2-55.9h36.35l5.66,114.7h-26.49l-4.36-85.14-24.72,59.29h-24.88l-24.07-59.29-4.36,85.14h-25.37Z"/>
    <path class="cls-2" d="M1219.61,368.75c0,6.46,2.64,10.77,7.92,12.92l-10.66,21.81c-9.16-1.62-15.67-6.41-19.55-14.38-2.8,4.63-6.7,8.21-11.71,10.74s-10.64,3.8-16.88,3.8c-10.99,0-20.11-3.77-27.39-11.31-7.27-7.54-10.9-17.77-10.9-30.69s4.04-23.37,12.12-31.34c8.08-7.97,18.31-11.95,30.7-11.95,9.15,0,16.9,2.26,23.26,6.79l.81-5.17h22.29v48.79ZM1174.86,380.87c5.81,0,10.58-2.07,14.29-6.22,3.72-4.14,5.52-9.4,5.41-15.75v-13.73c-5.81-2.91-11.63-4.36-17.45-4.36-6.46,0-11.55,1.91-15.27,5.73-3.72,3.82-5.57,8.86-5.57,15.1,0,5.82,1.75,10.48,5.25,13.97,3.5,3.5,7.94,5.25,13.33,5.25ZM1162.75,308.65l19.55-27.3h23.1l-22.13,27.3h-20.52Z"/>
    <path class="cls-2" d="M1267.75,403.65c-12.6,0-23.86-2.8-33.76-8.4l8.4-18.26c7.43,4.85,15.78,7.27,25.04,7.27,7,0,10.5-1.88,10.5-5.65,0-1.83-1.13-3.34-3.39-4.52-2.26-1.18-6.52-2.64-12.76-4.36-7.86-2.15-13.92-5.17-18.17-9.05-4.26-3.88-6.38-9.21-6.38-15.99,0-8.08,2.93-14.51,8.8-19.31,5.87-4.79,13.6-7.19,23.18-7.19,7.11,0,13.33,1.27,18.66,3.8,5.33,2.53,9.39,5.73,12.2,9.61l-15.51,12.28c-1.51-2.15-3.71-3.96-6.62-5.41-2.91-1.45-5.82-2.18-8.72-2.18-5.07,0-7.59,1.78-7.59,5.33,0,1.83,1.32,3.42,3.96,4.77,2.64,1.35,7.13,2.94,13.49,4.77,7.86,2.37,13.7,5.47,17.53,9.29,3.82,3.82,5.73,9.13,5.73,15.91,0,8.51-2.99,15.19-8.97,20.03-5.98,4.85-14.51,7.27-25.61,7.27Z"/>
  </g>
</svg>