<?xml version="1.0" encoding="UTF-8"?>
<svg id="Capa_1" data-name="Capa 1" xmlns="http://www.w3.org/2000/svg" viewBox="0 0 1383.71 449.53">
  <defs>
    <style>
      .cls-1 {
        letter-spacing: -.01em;
      }

      .cls-2 {
        letter-spacing: -.02em;
      }

      .cls-3 {
        fill: #293451;
      }

      .cls-3, .cls-4, .cls-5 {
        stroke-width: 0px;
      }

      .cls-4 {
        fill: #97faff;
      }

      .cls-5 {
        fill: #00dbf2;
      }

      .cls-6 {
        fill: #fff;
        font-family: Carnero-Bold, Carnero;
        font-size: 161.55px;
        font-weight: 700;
      }
    </style>
  </defs>
  <rect class="cls-5" x="735.75" y="224.76" width="647.95" height="224.76"/>
  <rect class="cls-3" width="1158.94" height="224.76"/>
  <rect class="cls-4" x="1158.94" width="224.76" height="224.76" transform="translate(2542.65 224.76) rotate(180)"/>
  <text class="cls-6" transform="translate(67.93 164.29)"><tspan x="0" y="0">Grupo </tspan><tspan class="cls-2" x="526.48" y="0">C</tspan><tspan x="634.88" y="0">ar</tspan><tspan class="cls-1" x="804.35" y="0">r</tspan><tspan x="867.35" y="0">os</tspan></text>
  <text class="cls-6" transform="translate(814.77 402.03)"><tspan x="0" y="0">&amp; Más</tspan></text>
  <g id="WrfSx5.tif">
    <g>
      <path class="cls-3" d="M1345.93,109.91v32.6c-.07.09-.19.17-.2.26-.57,4.23-2.33,7.86-5.32,10.9-.25.26-.32.79-.32,1.2,0,4.92.08,9.83,0,14.75-.07,3.99-1.79,7.2-5.23,9.31-1.08.67-2.32,1.08-3.49,1.61h-20.33c-.3-.13-.58-.28-.89-.38-3.77-1.32-6.34-3.83-7.37-7.73-.34-1.29-.4-2.68-.42-4.03-.06-3.15-.02-6.29-.02-9.48h-62.07c0,3.83.12,7.56-.03,11.27-.19,4.71-2.69,7.88-6.99,9.68-.5.21-.99.45-1.49.67h-20.33c-.14-.09-.27-.22-.42-.27-5.62-1.76-8.36-5.5-8.37-11.42,0-4.07.05-8.14-.05-12.21-.02-.77-.42-1.74-.98-2.27-3.91-3.66-6.09-8.08-6.11-13.47-.03-9.78-.07-19.56,0-29.34.06-7.89,4.75-14.36,12.22-16.95,1.24-.43,1.72-1.13,2.07-2.29,2.89-9.67,5.81-19.33,8.76-28.99,1.8-5.9,5.58-9.97,11.35-12.13,1.15-.43,2.36-.71,3.54-1.05,24.85,0,49.69,0,74.54,0,.14.09.27.23.42.26,7.65,1.57,12.36,6.24,14.57,13.68,2.82,9.52,5.77,19,8.6,28.51.33,1.12.87,1.62,1.94,1.99,6.15,2.15,10.05,6.44,11.75,12.74.23.86.44,1.72.67,2.58ZM1270.54,101.12s0,.03,0,.04c-19.03,0-38.05-.01-57.08,0-5.88,0-10.38,4.25-10.46,10.16-.13,9.96-.13,19.92,0,29.87.08,5.8,4.61,10.01,10.39,10.05,8.41.06,16.82.12,25.23.12,29.64-.01,59.28-.05,88.92-.09.95,0,1.93-.02,2.85-.25,4.78-1.21,7.98-5.31,8-10.28.03-9.39-.18-18.79.08-28.18.17-5.97-4.43-11.64-11.54-11.54-18.8.25-37.6.09-56.4.09ZM1324.11,93.48c-.15-.59-.24-1.02-.37-1.45-2.61-8.64-5.22-17.28-7.85-25.92-1.8-5.92-5.38-8.59-11.59-8.58-22.47,0-44.93.02-67.4.04-6.19,0-9.7,2.68-11.52,8.67-2.45,8.1-4.92,16.2-7.37,24.3-.28.94-.51,1.9-.79,2.95h106.87Z"/>
      <path class="cls-5" d="M1325.68,126.19c0,8-6.5,14.57-14.5,14.64-7.99.07-14.62-6.61-14.57-14.7.05-8.04,6.6-14.6,14.54-14.55,7.99.05,14.52,6.62,14.53,14.61ZM1311.33,119.05c-4.04-.08-7.31,3.02-7.38,7-.07,3.95,3.01,7.21,6.9,7.31,4.15.11,7.41-2.99,7.47-7.08.05-3.95-3.05-7.15-6.98-7.23Z"/>
      <path class="cls-5" d="M1246.12,126.2c0,8.06-6.47,14.59-14.47,14.63-7.99.04-14.61-6.63-14.59-14.71.01-7.95,6.66-14.57,14.59-14.54,8,.03,14.47,6.57,14.47,14.62ZM1231.51,133.37c4.03.04,7.27-3.11,7.31-7.09.04-3.98-3.17-7.22-7.17-7.23-4.01-.01-7.25,3.2-7.24,7.18.01,3.92,3.18,7.11,7.1,7.14Z"/>
      <path class="cls-3" d="M1271.56,122.44c2.2,0,4.39-.04,6.59,0,2.49.05,4.15,1.58,4.16,3.74,0,2.17-1.64,3.75-4.12,3.78-4.56.05-9.12.05-13.68,0-2.48-.03-4.08-1.62-4.05-3.82.03-2.13,1.6-3.63,4.01-3.69,2.36-.06,4.73-.01,7.1-.01Z"/>
    </g>
  </g>
</svg>