<svg width="332" height="294" viewBox="0 0 332 294" fill="none" xmlns="http://www.w3.org/2000/svg">
<path d="M88.7471 231.04C102.048 220.859 125.613 206.635 159.589 199.824V294.001H88.7471V231.04Z" fill="#293451"/>
<path d="M260.242 0.976868V122.759C245.863 118.908 230.235 116.02 213.333 114.263C194.104 112.29 176.173 112.145 159.565 113.349V0.976868H88.7227V128.367C31.5006 149.185 2.15465 183.457 0.292969 185.696L3.99183 188.656L57.1477 231.521C57.1477 231.521 57.9315 230.63 59.3523 229.282C63.4431 225.263 73.2169 216.526 88.7717 207.886C105.576 198.476 129.19 189.162 159.614 186.009C173.552 184.541 188.91 184.396 205.739 186.129C226.683 188.295 244.761 192.796 260.291 198.572C275.797 204.276 288.731 211.328 299.386 218.5C288.167 212.796 275.185 207.573 260.291 203.626V294H331.133V0.976868H260.291H260.242Z" fill="#FF2625"/>
</svg>
