<svg width="19" height="12" viewBox="0 0 19 12" fill="none" xmlns="http://www.w3.org/2000/svg">
<path d="M0.424999 9.27495L8.825 0.849951C8.925 0.749951 9.03333 0.679284 9.15 0.637951C9.26667 0.595951 9.39167 0.574951 9.525 0.574951C9.65833 0.574951 9.78333 0.595951 9.9 0.637951C10.0167 0.679284 10.125 0.749951 10.225 0.849951L18.65 9.27495C18.8833 9.50828 19 9.79995 19 10.15C19 10.5 18.875 10.8 18.625 11.05C18.375 11.3 18.0833 11.425 17.75 11.425C17.4167 11.425 17.125 11.3 16.875 11.05L9.525 3.69995L2.175 11.05C1.94167 11.2833 1.65433 11.4 1.313 11.4C0.971001 11.4 0.674999 11.275 0.424999 11.025C0.174999 10.775 0.0499994 10.4833 0.0499994 10.15C0.0499993 9.81662 0.174999 9.52495 0.424999 9.27495Z" fill="white"/>
</svg>
