<svg width="15" height="14" viewBox="0 0 15 14" fill="none" xmlns="http://www.w3.org/2000/svg">
<path d="M2.5 12.25V12.7094C2.5 13.074 2.38194 13.3802 2.14583 13.6281C1.90972 13.876 1.61111 14 1.25 14C0.902778 14 0.607778 13.8723 0.365 13.6168C0.121667 13.3618 0 13.0521 0 12.6875V6.125L1.75 0.875C1.83333 0.6125 1.98278 0.401042 2.19833 0.240625C2.41333 0.0802084 2.65278 0 2.91667 0H12.0833C12.3472 0 12.5869 0.0802084 12.8025 0.240625C13.0175 0.401042 13.1667 0.6125 13.25 0.875L15 6.125V12.7094C15 13.074 14.8819 13.3802 14.6458 13.6281C14.4097 13.876 14.1111 14 13.75 14C13.4028 14 13.1078 13.8723 12.865 13.6168C12.6217 13.3618 12.5 13.0521 12.5 12.6875V12.25H2.5ZM2.33333 4.375H12.6667L11.7917 1.75H3.20833L2.33333 4.375ZM3.75 9.625C4.09722 9.625 4.39222 9.49725 4.635 9.24175C4.87833 8.98683 5 8.67708 5 8.3125C5 7.94792 4.87833 7.63817 4.635 7.38325C4.39222 7.12775 4.09722 7 3.75 7C3.40278 7 3.10778 7.12775 2.865 7.38325C2.62167 7.63817 2.5 7.94792 2.5 8.3125C2.5 8.67708 2.62167 8.98683 2.865 9.24175C3.10778 9.49725 3.40278 9.625 3.75 9.625ZM11.25 9.625C11.5972 9.625 11.8922 9.49725 12.135 9.24175C12.3783 8.98683 12.5 8.67708 12.5 8.3125C12.5 7.94792 12.3783 7.63817 12.135 7.38325C11.8922 7.12775 11.5972 7 11.25 7C10.9028 7 10.6078 7.12775 10.365 7.38325C10.1217 7.63817 10 7.94792 10 8.3125C10 8.67708 10.1217 8.98683 10.365 9.24175C10.6078 9.49725 10.9028 9.625 11.25 9.625Z" fill="white"/>
</svg>
