<svg width="17" height="18" viewBox="0 0 17 18" fill="none" xmlns="http://www.w3.org/2000/svg">
<path d="M3.13344 0.844849C1.48367 0.844849 0.155273 2.17324 0.155273 3.82301V14.177C0.155273 15.8268 1.48367 17.1552 3.13344 17.1552H8.74523V10.7789H7.05915V8.48318H8.74523V6.52186C8.74523 4.98095 9.74145 3.56613 12.0363 3.56613C12.9655 3.56613 13.6526 3.65533 13.6526 3.65533L13.5986 5.79912C13.5986 5.79912 12.8978 5.7925 12.1332 5.7925C11.3056 5.7925 11.1729 6.1738 11.1729 6.80681V8.4832H13.6643L13.5558 10.7789H11.1729V17.1552H13.4874C15.1372 17.1552 16.4656 15.8268 16.4656 14.177V3.82303C16.4656 2.17326 15.1372 0.844865 13.4874 0.844865H3.13343L3.13344 0.844849Z" fill="white"/>
</svg>
