<svg width="18" height="17" viewBox="0 0 18 17" fill="none" xmlns="http://www.w3.org/2000/svg">
<path d="M7.04647 17H3.13939C2.86264 17 2.6305 16.9021 2.44296 16.7064C2.25607 16.5113 2.16263 16.2694 2.16263 15.9805V8.84408H0.50212C0.274207 8.84408 0.119552 8.73363 0.038155 8.51274C-0.0432423 8.29185 0.00559595 8.10495 0.18467 7.95202L8.34068 0.28036C8.51976 0.0934531 8.73953 0 9 0C9.26047 0 9.48025 0.0934531 9.65932 0.28036L12.9071 3.33883V1.70765C12.9071 1.41879 13.0008 1.17649 13.1884 0.98075C13.3753 0.785687 13.6071 0.688156 13.8838 0.688156H14.8606C15.1374 0.688156 15.3692 0.785687 15.5561 0.98075C15.7436 1.17649 15.8374 1.41879 15.8374 1.70765V6.09145L17.8153 7.95202C17.9944 8.10495 18.0432 8.29185 17.9618 8.51274C17.8804 8.73363 17.7258 8.84408 17.4979 8.84408H15.8374V15.9805C15.8374 16.2694 15.7436 16.5113 15.5561 16.7064C15.3692 16.9021 15.1374 17 14.8606 17H10.9535V11.9025C10.9535 11.6137 10.8601 11.3714 10.6732 11.1757C10.4857 10.9806 10.2535 10.8831 9.97677 10.8831H8.02323C7.74648 10.8831 7.51466 10.9806 7.32777 11.1757C7.14023 11.3714 7.04647 11.6137 7.04647 11.9025V17ZM7.04647 6.83058H10.9535C10.9535 6.28686 10.7582 5.84066 10.3675 5.49199C9.97677 5.14401 9.52094 4.97002 9 4.97002C8.47906 4.97002 8.02323 5.14401 7.63253 5.49199C7.24182 5.84066 7.04647 6.28686 7.04647 6.83058Z" fill="white"/>
</svg>
