<svg width="17" height="18" viewBox="0 0 17 18" fill="none" xmlns="http://www.w3.org/2000/svg">
<path fill-rule="evenodd" clip-rule="evenodd" d="M5.2415 0.89378C6.11114 0.853745 6.38842 0.844849 8.60366 0.844849C10.8189 0.844849 11.0962 0.854487 11.9651 0.89378C12.834 0.933073 13.4271 1.07171 13.946 1.27262C14.4895 1.47799 14.9825 1.799 15.3902 2.21418C15.8054 2.62119 16.1257 3.11347 16.3303 3.65764C16.532 4.17661 16.6699 4.76971 16.7099 5.63712C16.7499 6.50825 16.7588 6.78552 16.7588 9.00002C16.7588 11.2153 16.7492 11.4925 16.7099 12.3622C16.6706 13.2296 16.532 13.8227 16.3303 14.3417C16.1257 14.8859 15.8049 15.379 15.3902 15.7866C14.9825 16.2018 14.4895 16.5221 13.946 16.7267C13.4271 16.9283 12.834 17.0662 11.9666 17.1063C11.0962 17.1463 10.8189 17.1552 8.60366 17.1552C6.38842 17.1552 6.11114 17.1456 5.2415 17.1063C4.37409 17.067 3.78099 16.9283 3.26202 16.7267C2.71779 16.522 2.2247 16.2012 1.81707 15.7866C1.40218 15.3793 1.08112 14.8865 0.876262 14.3424C0.675348 13.8234 0.537452 13.2303 0.497417 12.3629C0.457383 11.4918 0.448486 11.2145 0.448486 9.00002C0.448486 6.78478 0.458124 6.5075 0.497417 5.63861C0.53671 4.76971 0.675348 4.17661 0.876262 3.65764C1.08142 3.11353 1.40273 2.62068 1.81781 2.21343C2.22486 1.79863 2.71746 1.47757 3.26128 1.27262C3.78025 1.07171 4.37335 0.933814 5.24076 0.89378H5.2415ZM11.8991 2.36171C11.0391 2.32242 10.7811 2.31426 8.60366 2.31426C6.42623 2.31426 6.16823 2.32242 5.30823 2.36171C4.51273 2.39804 4.08125 2.53075 3.79359 2.64269C3.41326 2.79097 3.14118 2.96668 2.85575 3.25211C2.58518 3.51534 2.37695 3.83578 2.24633 4.18995C2.13438 4.47761 2.00168 4.90909 1.96535 5.70459C1.92606 6.56459 1.9179 6.82259 1.9179 9.00002C1.9179 11.1775 1.92606 11.4355 1.96535 12.2955C2.00168 13.091 2.13438 13.5224 2.24633 13.8101C2.37681 14.1637 2.58514 14.4847 2.85575 14.7479C3.11893 15.0185 3.43995 15.2269 3.79359 15.3573C4.08125 15.4693 4.51273 15.602 5.30823 15.6383C6.16823 15.6776 6.42549 15.6858 8.60366 15.6858C10.7818 15.6858 11.0391 15.6776 11.8991 15.6383C12.6946 15.602 13.1261 15.4693 13.4137 15.3573C13.7941 15.2091 14.0661 15.0334 14.3516 14.7479C14.6222 14.4847 14.8305 14.1637 14.961 13.8101C15.0729 13.5224 15.2056 13.091 15.242 12.2955C15.2813 11.4355 15.2894 11.1775 15.2894 9.00002C15.2894 6.82259 15.2813 6.56459 15.242 5.70459C15.2056 4.90909 15.0729 4.47761 14.961 4.18995C14.8127 3.80962 14.637 3.53754 14.3516 3.25211C14.0883 2.98156 13.7679 2.77333 13.4137 2.64269C13.1261 2.53075 12.6946 2.39804 11.8991 2.36171ZM7.56202 11.514C8.14375 11.7562 8.79151 11.7889 9.39466 11.6065C9.99781 11.4241 10.5189 11.038 10.869 10.5141C11.2191 9.99018 11.3765 9.36098 11.3142 8.73394C11.2519 8.10691 10.9739 7.52095 10.5275 7.07614C10.243 6.79181 9.89901 6.57409 9.52025 6.43866C9.14149 6.30324 8.73742 6.25348 8.33713 6.29296C7.93683 6.33244 7.55027 6.46019 7.20527 6.667C6.86027 6.87381 6.56542 7.15454 6.34194 7.48898C6.11845 7.82342 5.9719 8.20325 5.91283 8.60113C5.85377 8.99901 5.88365 9.40503 6.00033 9.78997C6.11702 10.1749 6.3176 10.5292 6.58764 10.8273C6.85768 11.1254 7.19046 11.36 7.56202 11.514ZM5.63962 6.03599C6.02887 5.64674 6.49096 5.33798 6.99954 5.12732C7.5081 4.91667 8.05319 4.80824 8.60366 4.80824C9.15413 4.80824 9.69921 4.91667 10.2078 5.12732C10.7164 5.33798 11.1785 5.64674 11.5677 6.03599C11.9569 6.42523 12.2657 6.88733 12.4764 7.3959C12.687 7.90447 12.7954 8.44955 12.7954 9.00002C12.7954 9.55049 12.687 10.0956 12.4764 10.6041C12.2657 11.1127 11.9569 11.5748 11.5677 11.9641C10.7816 12.7502 9.71539 13.1918 8.60366 13.1918C7.49193 13.1918 6.42573 12.7502 5.63962 11.9641C4.85351 11.1779 4.41188 10.1117 4.41188 9.00002C4.41188 7.88829 4.85351 6.8221 5.63962 6.03599ZM13.7251 5.4325C13.8216 5.34151 13.8988 5.23209 13.9522 5.11073C14.0056 4.98936 14.0341 4.8585 14.0361 4.72592C14.038 4.59333 14.0133 4.4617 13.9634 4.33883C13.9136 4.21595 13.8396 4.10433 13.7458 4.01057C13.6521 3.9168 13.5405 3.84281 13.4176 3.79296C13.2947 3.74311 13.1631 3.71842 13.0305 3.72035C12.8979 3.72228 12.767 3.7508 12.6457 3.80421C12.5243 3.85762 12.4149 3.93484 12.3239 4.0313C12.1469 4.21889 12.0501 4.46806 12.0538 4.72592C12.0576 4.98378 12.1617 5.23002 12.344 5.41237C12.5264 5.59472 12.7726 5.69883 13.0305 5.70259C13.2883 5.70635 13.5375 5.60946 13.7251 5.4325Z" fill="white"/>
</svg>
