<svg width="20" height="12" viewBox="0 0 20 12" fill="none" xmlns="http://www.w3.org/2000/svg">
<path d="M19.3748 2.72505L10.9748 11.15C10.8748 11.25 10.7665 11.3207 10.6498 11.362C10.5331 11.404 10.4081 11.425 10.2748 11.425C10.1415 11.425 10.0165 11.404 9.89981 11.362C9.78314 11.3207 9.6748 11.25 9.5748 11.15L1.1498 2.72505C0.916471 2.49172 0.799804 2.20005 0.799804 1.85005C0.799804 1.50005 0.924804 1.20005 1.1748 0.950049C1.4248 0.700049 1.71647 0.575049 2.0498 0.575049C2.38314 0.575049 2.6748 0.700049 2.9248 0.950049L10.2748 8.30005L17.6248 0.950049C17.8581 0.716715 18.1455 0.600048 18.4868 0.600048C18.8288 0.600048 19.1248 0.725048 19.3748 0.975048C19.6248 1.22505 19.7498 1.51672 19.7498 1.85005C19.7498 2.18338 19.6248 2.47505 19.3748 2.72505Z" fill="white"/>
</svg>
