<svg width="18" height="14" viewBox="0 0 18 14" fill="none" xmlns="http://www.w3.org/2000/svg">
<path d="M17.5752 1.69223C16.9562 1.96654 16.2911 2.15189 15.592 2.23566C16.3134 1.80403 16.8531 1.12468 17.1104 0.324389C16.4326 0.72695 15.6909 1.01031 14.9174 1.16215C14.3972 0.606754 13.7082 0.23863 12.9574 0.11493C12.2066 -0.00877114 11.4359 0.118872 10.7651 0.478041C10.0942 0.837211 9.56074 1.40781 9.24741 2.10126C8.93409 2.7947 8.85847 3.57219 9.0323 4.31301C7.65903 4.24406 6.31561 3.88712 5.08922 3.26537C3.86283 2.64362 2.78087 1.77094 1.91358 0.703975C1.61702 1.21553 1.44651 1.80863 1.44651 2.44029C1.44618 3.00892 1.58621 3.56884 1.85418 4.07038C2.12214 4.57192 2.50976 4.99955 2.98264 5.31535C2.43423 5.2979 1.89791 5.14972 1.41833 4.88313V4.92761C1.41828 5.72514 1.69415 6.49813 2.19914 7.11542C2.70413 7.73271 3.40714 8.15627 4.18887 8.31423C3.68012 8.45192 3.14674 8.4722 2.62901 8.37354C2.84957 9.05977 3.27919 9.65986 3.85774 10.0898C4.4363 10.5197 5.13481 10.758 5.85549 10.7712C4.63209 11.7316 3.1212 12.2525 1.56587 12.2502C1.29036 12.2503 1.01508 12.2342 0.741455 12.202C2.3202 13.2171 4.15798 13.7558 6.0349 13.7537C12.3885 13.7537 15.8619 8.49142 15.8619 3.92749C15.8619 3.77922 15.8582 3.62946 15.8515 3.48118C16.5271 2.99259 17.1103 2.38757 17.5737 1.69446L17.5752 1.69223Z" fill="white"/>
</svg>
