<svg width="18" height="18" viewBox="0 0 18 18" fill="none" xmlns="http://www.w3.org/2000/svg">
<path d="M14.31 13.851C14.076 13.131 13.401 12.6 12.6 12.6H11.7V9.9C11.7 9.6613 11.6052 9.43239 11.4364 9.2636C11.2676 9.09482 11.0387 9 10.8 9H5.4V7.2H7.2C7.43869 7.2 7.66761 7.10518 7.8364 6.9364C8.00518 6.76761 8.1 6.53869 8.1 6.3V4.5H9.9C10.3774 4.5 10.8352 4.31036 11.1728 3.97279C11.5104 3.63523 11.7 3.17739 11.7 2.7V2.331C12.7768 2.76513 13.7324 3.45373 14.485 4.33785C15.2375 5.22198 15.7647 6.27529 16.0212 7.40764C16.2778 8.53999 16.2561 9.71764 15.9581 10.8398C15.6601 11.9619 15.0946 12.9951 14.31 13.851ZM8.1 16.137C4.545 15.696 1.8 12.672 1.8 9C1.8 8.442 1.872 7.902 1.989 7.389L6.3 11.7V12.6C6.3 13.0774 6.48964 13.5352 6.82721 13.8728C7.16477 14.2104 7.62261 14.4 8.1 14.4M9 0C7.8181 0 6.64778 0.232792 5.55585 0.685084C4.46392 1.13738 3.47177 1.80031 2.63604 2.63604C0.948211 4.32387 0 6.61305 0 9C0 11.3869 0.948211 13.6761 2.63604 15.364C3.47177 16.1997 4.46392 16.8626 5.55585 17.3149C6.64778 17.7672 7.8181 18 9 18C11.3869 18 13.6761 17.0518 15.364 15.364C17.0518 13.6761 18 11.3869 18 9C18 7.8181 17.7672 6.64778 17.3149 5.55585C16.8626 4.46392 16.1997 3.47177 15.364 2.63604C14.5282 1.80031 13.5361 1.13738 12.4442 0.685084C11.3522 0.232792 10.1819 0 9 0Z" fill="white"/>
</svg>
