<svg width="19" height="12" viewBox="0 0 19 12" fill="none" xmlns="http://www.w3.org/2000/svg">
<path d="M17.7161 1.93128C17.6153 1.57189 17.4191 1.24651 17.1482 0.989732C16.8696 0.725063 16.5282 0.535738 16.1562 0.439629C14.7639 0.0726461 9.18577 0.0726461 9.18577 0.0726461C6.86031 0.0461883 4.53542 0.162557 2.22422 0.421094C1.85219 0.524304 1.51143 0.717859 1.23226 0.984543C0.957946 1.24847 0.759257 1.57394 0.655464 1.93054C0.406132 3.27373 0.28499 4.63757 0.29367 6.00368C0.284774 7.36856 0.405619 8.73196 0.655464 10.0768C0.757033 10.4319 0.954981 10.7559 1.23003 11.0176C1.50508 11.2793 1.8476 11.4684 2.22422 11.5685C3.63507 11.9347 9.18577 11.9347 9.18577 11.9347C11.5142 11.9612 13.8421 11.8448 16.1562 11.5863C16.5282 11.4902 16.8696 11.3008 17.1482 11.0362C17.419 10.7794 17.615 10.454 17.7153 10.0946C17.9712 8.75194 18.0956 7.38753 18.0868 6.02073C18.106 4.64815 17.9818 3.27731 17.7161 1.93054V1.93128ZM7.41239 8.54216V3.46594L12.0534 6.00442L7.41239 8.54216Z" fill="white"/>
</svg>
